<svg width="2609" height="2586" viewBox="0 0 2609 2586" fill="none" xmlns="http://www.w3.org/2000/svg">
<path fill-rule="evenodd" clip-rule="evenodd" d="M388.516 1264.74C309.658 1072.14 25.1951 986.396 4.36894 779.309C-12.076 615.787 193.382 515.021 300.592 390.472C409.497 263.955 488.456 88.8016 646.069 33.8324C807.322 -22.4065 995.57 22.1181 1150.45 94.073C1297.25 162.275 1336.34 405.246 1496.47 428.911C1689.03 457.37 1845.65 198.843 2038.5 225.316C2200.01 247.488 2375.53 390.762 2396.49 552.461C2422.07 749.827 2109.05 896.371 2150.7 1090.98C2193.7 1291.83 2561.84 1302.85 2600.29 1504.62C2631.32 1667.42 2445.93 1812.4 2304.72 1899.12C2162.62 1986.4 1972.53 1927.49 1816.4 1986.07C1706.5 2027.31 1620.04 2111.05 1532.25 2188.99C1394.34 2311.42 1331.41 2592.77 1147.45 2579.92C965.707 2567.23 973.205 2253.81 830.918 2140.01C723.912 2054.43 535.819 2116.68 442.628 2016.23C349.547 1915.9 358.444 1756.64 348.614 1620.12C339.979 1500.21 434.068 1376.01 388.516 1264.74Z" fill="url(#paint0_linear)"/>
<defs>
<linearGradient id="paint0_linear" x1="5.81824" y1="1298.69" x2="2602.61" y2="1287.19" gradientUnits="userSpaceOnUse">
<stop offset="0.1875" stop-color="#0F163C"/>
<stop offset="1" stop-color="#005BE3" stop-opacity="0.58"/>
</linearGradient>
</defs>
</svg>
